<svg width="37px" height="33px" viewBox="0 0 37 33" version="1.1" xmlns="http://www.w3.org/2000/svg" xmlns:xlink="http://www.w3.org/1999/xlink">
    <g id="Page-1" stroke="none" stroke-width="1" fill="none" fill-rule="evenodd">
        <g id="Voucher_overzicht_V2_01" transform="translate(-44.000000, -878.000000)" fill="#A3A3A3" stroke="#A3A3A3" stroke-width="1.3">
            <g id="Bottom-Navigatie---Gereserveerd" transform="translate(0.000000, 845.000000)">
                <g id="Bottom-Navigatie-gereserveerd">
                    <g id="Bottom-Navigatie">
                        <g id="home-2" transform="translate(45.000000, 34.000000)">
                            <path d="M34.6277587,12.5040446 L18.0372213,0.178180073 C17.7172312,-0.0593933578 17.2826709,-0.0593933578 16.9628176,0.178180073 L0.372211782,12.5040446 C-0.0330223626,12.8051559 -0.121000828,13.3825461 0.17574705,13.7937388 C0.472426568,14.2049316 1.0415864,14.2941344 1.44668383,13.9931618 L17.4999852,2.06635127 L33.5532866,13.9931618 C33.7151615,14.1134398 33.9033548,14.1714286 34.0897707,14.1714286 C34.3697705,14.1714286 34.646079,14.0406765 34.8242234,13.7937388 C35.1210396,13.3825461 35.0329928,12.8051559 34.6277587,12.5040446" id="Fill-1"></path>
                            <path d="M30.5128385,14.1714286 C30.0172787,14.1714286 29.6154206,14.5696426 29.6154206,15.0610073 L29.6154206,29.2207757 L22.4362122,29.2207757 L22.4362122,21.4914115 C22.4362122,19.0386672 20.4230765,17.0431836 17.9487179,17.0431836 C15.4744269,17.0431836 13.4612911,19.038734 13.4612911,21.4914115 L13.4612911,29.2207757 L6.28208276,29.2207757 L6.28208276,15.0610073 C6.28208276,14.5696426 5.88022465,14.1714286 5.38466486,14.1714286 C4.88910506,14.1714286 4.48717949,14.5696426 4.48717949,15.0610073 L4.48717949,30.1103544 C4.48717949,30.6017191 4.88910506,31 5.38466486,31 L14.358709,31 C14.8307253,31 15.2168653,30.6385648 15.2526865,30.1796992 C15.2548452,30.1588356 15.2561944,30.1361665 15.2561944,30.1103544 L15.2561944,21.4914115 C15.2561944,20.0197248 16.4639949,18.8224079 17.9487179,18.8224079 C19.433441,18.8224079 20.641309,20.0197916 20.641309,21.4914115 L20.641309,30.1103544 C20.641309,30.1360327 20.6426582,30.1583006 20.6448169,30.1788967 C20.6801658,30.6380967 21.0665082,31 21.5387269,31 L30.5128385,31 C31.0084658,31 31.4102564,30.6017191 31.4102564,30.1103544 L31.4102564,15.0610073 C31.4102564,14.5696426 31.0084658,14.1714286 30.5128385,14.1714286" id="Fill-3"></path>
                        </g>
                    </g>
                </g>
            </g>
        </g>
    </g>
</svg>