<svg width="59px" height="52px" viewBox="0 0 59 52" version="1.1" xmlns="http://www.w3.org/2000/svg" xmlns:xlink="http://www.w3.org/1999/xlink">
    <g id="Page-1" stroke="none" stroke-width="1" fill="none" fill-rule="evenodd">
        <g id="Home_V10_01" transform="translate(-33.000000, -791.000000)" fill="#FFC546" stroke="#FFC546" stroke-width="1.3">
            <g id="Bottom-Navigatie---Home" transform="translate(0.000000, 777.000000)">
                <g id="Bottom-Navigatie">
                    <g id="home-2" transform="translate(34.000000, 15.000000)">
                        <path d="M55.8512237,20.1678139 L29.0922923,0.287387215 C28.5761794,-0.0957957383 27.8752756,-0.0957957383 27.3593832,0.287387215 L0.600341583,20.1678139 C-0.0532618751,20.6534773 -0.195162626,21.5847517 0.283462984,22.2479659 C0.761978336,22.91118 1.67997807,23.0550555 2.33336101,22.5696158 L28.2257826,3.33282464 L54.1182042,22.5696158 C54.3792928,22.7636127 54.6828303,22.8571429 54.9835011,22.8571429 C55.4351138,22.8571429 55.8807725,22.6462524 56.1681023,22.2479659 C56.6468381,21.5847517 56.5048271,20.6534773 55.8512237,20.1678139" id="Fill-1"></path>
                        <path d="M49.2142556,22.8571429 C48.4149657,22.8571429 47.7668074,23.4994235 47.7668074,24.2919472 L47.7668074,47.1302834 L36.1874391,47.1302834 L36.1874391,34.6635669 C36.1874391,30.7075277 32.9404459,27.4890058 28.9495451,27.4890058 C24.958753,27.4890058 21.7117599,30.7076356 21.7117599,34.6635669 L21.7117599,47.1302834 L10.1323916,47.1302834 L10.1323916,24.2919472 C10.1323916,23.4994235 9.48423331,22.8571429 8.68494331,22.8571429 C7.88565332,22.8571429 7.23738627,23.4994235 7.23738627,24.2919472 L7.23738627,48.5650878 C7.23738627,49.3576115 7.88565332,50 8.68494331,50 L23.1592081,50 C23.9205247,50 24.5433312,49.41704 24.6011072,48.6769342 C24.604589,48.6432832 24.6067651,48.6067201 24.6067651,48.5650878 L24.6067651,34.6635669 C24.6067651,32.2898787 26.5548305,30.3587224 28.9495451,30.3587224 C31.3442597,30.3587224 33.2924338,32.2899865 33.2924338,34.6635669 L33.2924338,48.5650878 C33.2924338,48.6065044 33.2946099,48.6424203 33.2980917,48.6756399 C33.3551062,49.416285 33.978239,50 34.7398821,50 L49.2142556,50 C50.0136544,50 50.6617039,49.3576115 50.6617039,48.5650878 L50.6617039,24.2919472 C50.6617039,23.4994235 50.0136544,22.8571429 49.2142556,22.8571429" id="Fill-3"></path>
                    </g>
                </g>
            </g>
        </g>
    </g>
</svg>