<svg width="18px" height="16px" viewBox="0 0 18 16" version="1.1" xmlns="http://www.w3.org/2000/svg" xmlns:xlink="http://www.w3.org/1999/xlink">
    <g id="Page-1" stroke="none" stroke-width="1" fill="none" fill-rule="evenodd">
        <g id="Productoverzicht_map_V2" transform="translate(-342.000000, -36.000000)" fill="#FFFFFF" stroke="#FFFFFF" stroke-width="0.5">
            <g id="Top-Bar" transform="translate(0.000000, 19.000000)">
                <g id="Lijstweergaven" transform="translate(307.000000, 16.000000)">
                    <g id="Map-icoon" transform="translate(36.000000, 2.000000)">
                        <path d="M15.4174545,11.8770306 L10.764,13.665694 L10.764,2.21939818 L15.4174545,0.686566123 L15.4174545,11.8770306 Z M5.81818182,1.22553661 L10.1818182,2.24023837 L10.1818182,13.7425871 L5.81818182,12.9819201 L5.81818182,1.22553661 Z M0.582545455,2.24311288 L5.23563636,1.22122484 L5.23563636,12.9930588 L0.582545455,14.0149468 L0.582545455,2.24311288 Z M15.8792727,0.0548927176 C15.8025455,0.000277042057 15.7058182,-0.0151734451 15.6163636,0.0157275292 L10.4585455,1.71384386 L5.59345455,0.582724477 C5.58109091,0.579849968 5.56909091,0.584161732 5.55636364,0.582724477 C5.52690909,0.579849968 5.49527273,0.575538204 5.464,0.582724477 L0.227272727,1.73216886 C0.0952727273,1.76163258 0,1.8780502 0,2.01279282 L0,14.3728232 C0,14.4612144 0.0392727273,14.5424193 0.109090909,14.5973943 C0.16,14.639434 0.225818182,14.6606335 0.290909091,14.6606335 C0.312,14.6606335 0.332363636,14.657759 0.353818182,14.6538065 L5.53381818,13.5165788 L10.4218182,14.3688708 C10.4389091,14.371386 10.4556364,14.3742605 10.4727273,14.3742605 C10.5083636,14.3742605 10.5425455,14.3674335 10.5752727,14.3548576 L10.5778182,14.3548576 L15.8138182,12.3416232 C15.9258182,12.2981462 16,12.19143 16,12.0735752 L16,0.28808728 C16,0.195384357 15.9545455,0.109508393 15.8792727,0.0548927176 Z" id="Fill-1"></path>
                    </g>
                </g>
            </g>
        </g>
    </g>
</svg>