<svg width="18px" height="14px" viewBox="0 0 18 14" version="1.1" xmlns="http://www.w3.org/2000/svg" xmlns:xlink="http://www.w3.org/1999/xlink">
    <g id="Page-1" stroke="none" stroke-width="1" fill="none" fill-rule="evenodd">
        <g id="Productpagina_filter_V2" transform="translate(-307.000000, -38.000000)" fill="#FFFFFF">
            <g id="Top-Bar" transform="translate(0.000000, 19.000000)">
                <g id="Lijstweergaven" transform="translate(307.000000, 16.000000)">
                    <g id="List-icoon" transform="translate(0.000000, 3.000000)">
                        <path d="M16.7874612,13.0597857 L4.97211429,13.0597857 C4.48574694,13.0597857 4.09121633,12.6758571 4.09121633,12.203 C4.09121633,11.7283571 4.48574694,11.3447857 4.97211429,11.3447857 L16.7874612,11.3447857 C17.2738286,11.3447857 17.6683592,11.7283571 17.6683592,12.203 C17.6683592,12.6758571 17.2738286,13.0597857 16.7874612,13.0597857" id="Fill-1"></path>
                        <path d="M16.7874612,7.67996429 L4.97211429,7.67996429 C4.48574694,7.67996429 4.09121633,7.29639286 4.09121633,6.82210714 C4.09121633,6.34925 4.48574694,5.96532143 4.97211429,5.96532143 L16.7874612,5.96532143 C17.2738286,5.96532143 17.6683592,6.34925 17.6683592,6.82210714 C17.6683592,7.29639286 17.2738286,7.67996429 16.7874612,7.67996429" id="Fill-3"></path>
                        <path d="M16.7874612,2.29928571 L4.97211429,2.29928571 C4.48574694,2.29928571 4.09121633,1.91535714 4.09121633,1.4425 C4.09121633,0.968214286 4.48574694,0.584642857 4.97211429,0.584642857 L16.7874612,0.584642857 C17.2738286,0.584642857 17.6683592,0.968214286 17.6683592,1.4425 C17.6683592,1.91535714 17.2738286,2.29928571 16.7874612,2.29928571" id="Fill-5"></path>
                        <path d="M2.36747755,1.50825 C2.36747755,2.14432143 1.83813061,2.65932143 1.18388571,2.65932143 C0.529273469,2.65932143 -7.34693878e-05,2.14432143 -7.34693878e-05,1.50825 C-7.34693878e-05,0.872178571 0.529273469,0.357178571 1.18388571,0.357178571 C1.83813061,0.357178571 2.36747755,0.872178571 2.36747755,1.50825" id="Fill-7"></path>
                        <path d="M2.36747755,6.822 C2.36747755,7.45807143 1.83813061,7.97307143 1.18388571,7.97307143 C0.529273469,7.97307143 -7.34693878e-05,7.45807143 -7.34693878e-05,6.822 C-7.34693878e-05,6.18735714 0.529273469,5.67092857 1.18388571,5.67092857 C1.83813061,5.67092857 2.36747755,6.18735714 2.36747755,6.822" id="Fill-10"></path>
                        <path d="M2.36747755,12.1362143 C2.36747755,12.7719286 1.83813061,13.2869286 1.18388571,13.2869286 C0.529273469,13.2869286 -7.34693878e-05,12.7719286 -7.34693878e-05,12.1362143 C-7.34693878e-05,11.5012143 0.529273469,10.9847857 1.18388571,10.9847857 C1.83813061,10.9847857 2.36747755,11.5012143 2.36747755,12.1362143" id="Fill-13"></path>
                    </g>
                </g>
            </g>
        </g>
    </g>
</svg>