<svg width="32px" height="32px" viewBox="0 0 32 32" version="1.1" xmlns="http://www.w3.org/2000/svg" xmlns:xlink="http://www.w3.org/1999/xlink">
    <g id="Page-1" stroke="none" stroke-width="1" fill="none" fill-rule="evenodd">
        <g id="Home_V10_01" transform="translate(-280.000000, -271.000000)">
            <rect fill="#FFFFFF" x="0" y="0" width="375" height="854"></rect>
            <g id="Reserveer-Button_6" transform="translate(280.000000, 270.000000)">
                <circle id="Oval" fill="#FFC546" cx="16.1" cy="16.8" r="15.4"></circle>
                <g id="Group" stroke-width="1" transform="translate(4.900000, 8.400000)">
                    <g id="icon" fill="#FFFFFF">
                        <g id="Group-3">
                            <path d="M18.0892374,2.76531567 C17.9870692,2.59839747 17.8188571,2.48148733 17.6247697,2.44343088 L7.32301818,0.0154112903 C6.98351465,-0.0490195853 6.64851515,0.134388249 6.53108838,0.4515553 L2.60443838,10.2038018 L3.91520606,10.6708583 L7.63646263,1.39806912 L16.5874616,3.63090899 C16.0284091,5.32511751 14.6982924,8.86135714 13.4230515,12.1539366 C12.3114268,15.026682 11.6717611,16.0104435 10.4558081,16.2112396 C10.4543833,16.2098018 10.4530965,16.2085887 10.4530965,16.206477 C7.96806111,16.5469631 8.01259596,13.4499228 8.01259596,13.4499228 L0.0762929293,10.3158145 C-0.487585354,13.8105829 2.25900606,14.6511048 2.25900606,14.6511048 L8.06967778,17.2300472 C8.07091869,17.2307661 8.97811515,17.6532062 9.96390253,17.6097131 C12.6230788,17.5486071 13.5575293,15.6609712 14.7284419,12.6367638 C16.4201227,8.26602304 18.1369894,3.36887212 18.1538566,3.31693203 C18.2143394,3.13159217 18.1904864,2.9316947 18.0892374,2.76531567 Z" id="Fill-1"></path>
                        </g>
                        <path d="M13.238413,6.90506533 C13.2950151,6.92348314 13.3536818,6.93333333 13.4116172,6.93333333 C13.6979398,6.93333333 13.9600043,6.705445 14.0403053,6.35996999 C14.1357462,5.94472277 13.9295957,5.51588024 13.5821548,5.40285953 L10.7525209,4.36115027 C10.408951,4.24771914 10.0453812,4.49140882 9.95045649,4.90624561 C9.85570382,5.32128762 10.0598328,5.75013015 10.408779,5.8637665 L13.238413,6.90506533 Z" id="Fill-4"></path>
                        <path d="M9.13366911,7.43427354 C9.01965266,7.81990498 9.20451386,8.2352525 9.54768568,8.3640383 L12.3728847,9.4958627 C12.4415276,9.52141659 12.5088323,9.5329352 12.5769573,9.53332238 C12.8525222,9.53501629 13.1105163,9.34011948 13.2026015,9.03158529 C13.3167474,8.64682501 13.1322748,8.23094512 12.7877647,8.10215932 L9.96368814,6.97125447 C9.61848726,6.84309783 9.24885119,7.05028762 9.13366911,7.43427354 Z" id="Fill-5"></path>
                        <path d="M8.3042494,10.4380126 C7.96092704,10.308864 7.59049234,10.5195724 7.47820675,10.9068727 C7.36540391,11.2911684 7.55346611,11.7081753 7.89661606,11.8342708 L10.7232819,12.9628789 C10.7914723,12.9888055 10.8593178,13 10.9280253,13 C11.2024677,13 11.4585909,12.8034907 11.5489798,12.4947457 C11.6618257,12.1081723 11.4744101,11.6919408 11.1312601,11.5658453 L8.3042494,10.4380126 Z" id="Fill-6"></path>
                        <path d="M8.27280097,3.46666667 C8.72939164,3.46666667 9.1,3.85495875 9.1,4.33343925 C9.1,4.81213158 8.72939164,5.2 8.27280097,5.2 C7.81586637,5.2 7.44545455,4.81213158 7.44545455,4.33343925 C7.44545455,3.85495875 7.81586637,3.46666667 8.27280097,3.46666667 Z" id="Fill-7"></path>
                        <path d="M7.44555281,6.06666667 C7.9027195,6.06666667 8.27272727,6.45480784 8.27272727,6.93362481 C8.27272727,7.41185883 7.9027195,7.8 7.44555281,7.8 C6.98858264,7.8 6.61818182,7.41185883 6.61818182,6.93362481 C6.61818182,6.45480784 6.98858264,6.06666667 7.44555281,6.06666667 Z" id="Fill-8"></path>
                        <path d="M5.79103189,8.66666667 C6.24785797,8.66666667 6.61818182,9.05494689 6.61818182,9.53426008 C6.61818182,10.0125141 6.24785797,10.4 5.79103189,10.4 C5.3341567,10.4 4.96363636,10.0125141 4.96363636,9.53426008 C4.96363636,9.05494689 5.3341567,8.66666667 5.79103189,8.66666667 Z" id="Fill-9"></path>
                    </g>
                    <path d="M19.7,3 L22.05,3 C22.2432997,3 22.4,3.15670034 22.4,3.35 L22.4,4.65 C22.4,4.84329966 22.2432997,5 22.05,5 L19.7,5 L19.7,7.35 C19.7,7.54329966 19.5432997,7.7 19.35,7.7 L18.05,7.7 C17.8567003,7.7 17.7,7.54329966 17.7,7.35 L17.7,5 L15.05,5 C14.8567003,5 14.7,4.84329966 14.7,4.65 L14.7,3.35 C14.7,3.15670034 14.8567003,3 15.05,3 L17.7,3 L17.7,0.35 C17.7,0.156700338 17.8567003,1.46530874e-16 18.05,1.11022302e-16 L19.35,0 C19.5432997,-3.55085719e-17 19.7,0.156700338 19.7,0.35 L19.7,3 Z" id="Combined-Shape" fill="#333333"></path>
                </g>
            </g>
        </g>
    </g>
</svg>