
<svg width="35px" height="33px" viewBox="0 0 35 33" version="1.1" xmlns="http://www.w3.org/2000/svg" xmlns:xlink="http://www.w3.org/1999/xlink">
    <defs>
        <polygon id="path-1" points="0 0.0047820928 34.9744539 0.0047820928 34.9744539 32.5681489 0 32.5681489"></polygon>
    </defs>
    <g id="Page-1" stroke="none" stroke-width="1" fill="none" fill-rule="evenodd">
        <g id="Home_V10_01" transform="translate(-293.000000, -811.000000)">
            <g id="Bottom-Navigatie---Home" transform="translate(0.000000, 777.000000)">
                <g id="Bottom-Navigatie">
                    <g id="icon" transform="translate(293.000000, 34.000000)">
                        <g id="Group-3">
                            <mask id="mask-2" fill="white">
                                <use xlink:href="#path-1"></use>
                            </mask>
                            <g id="Clip-2"></g>
                            <path d="M34.7869949,5.11337956 C34.5905177,4.80472904 34.2670328,4.58854905 33.8937879,4.51817839 L14.0827273,0.0284972084 C13.4298359,-0.0906427242 12.7856061,0.248498981 12.5597854,0.834976515 L5.00853535,18.8679768 L7.52924242,19.7316167 L14.6855051,2.58518699 L31.8989646,6.71395892 C30.8238636,9.84674096 28.265947,16.3856456 25.8135606,22.4739953 C23.6758207,27.7860245 22.4456944,29.6051101 20.1073232,29.9764046 C20.1045833,29.973746 20.1021086,29.9715028 20.1021086,29.9675979 C15.3231944,30.5971951 15.4088384,24.8704194 15.4088384,24.8704194 L0.146717172,19.0751008 C-0.937664141,25.5373205 4.34424242,27.09154 4.34424242,27.09154 L15.5186111,31.8602944 C15.5209975,31.8616238 17.2656061,32.642763 19.161351,32.5623394 C24.2751515,32.4493475 26.0721717,28.9588964 28.3239268,23.366797 C31.5771591,15.2848059 34.8788258,6.2294233 34.9112626,6.13338023 C35.0275758,5.79066599 34.9817045,5.4210331 34.7869949,5.11337956 Z" id="Fill-1" fill="#A3A3A3" mask="url(#mask-2)"></path>
                        </g>
                        <path d="M25.7395442,12.5302782 C25.8569318,12.559973 25.9786009,12.5758544 26.0987537,12.5758544 C26.6925599,12.5758544 27.2360571,12.2084325 27.402594,11.6514269 C27.6005294,10.9819284 27.1729925,10.2905103 26.4524328,10.1082883 L20.5840365,8.42875185 C19.8715048,8.24586808 19.117495,8.63876628 18.92063,9.30760308 C18.7241218,9.97677075 19.1474663,10.6681889 19.871148,10.8514035 L25.7395442,12.5302782 Z" id="Fill-4" fill="#A3A3A3"></path>
                        <path d="M16.5404148,14.0905581 C16.3039554,14.7601343 16.6873402,15.4813069 17.3990465,15.7049191 L23.2582449,17.6701185 C23.4006041,17.714488 23.5401877,17.7344879 23.6814724,17.7351602 C24.2529684,17.7381014 24.7880239,17.3996998 24.9790001,16.8639885 C25.2157281,16.1959248 24.8331491,15.4738279 24.1186673,15.2502157 L18.2617967,13.2866129 C17.5458823,13.0640931 16.7792917,13.423839 16.5404148,14.0905581 Z" id="Fill-5" fill="#A3A3A3"></path>
                        <path d="M16.1928249,18.7685543 C15.4808065,18.5443122 14.7125595,18.9101676 14.4796897,19.5826414 C14.2457472,20.2498984 14.6357706,20.9739521 15.3474315,21.1928931 L21.2096722,23.1525081 C21.3510926,23.1975248 21.4917978,23.2169619 21.6342909,23.2169619 C22.2034587,23.2169619 22.7346343,22.8757605 22.9220923,22.3396831 C23.1561242,21.6684714 22.7674417,20.945764 22.0557808,20.726823 L16.1928249,18.7685543 Z" id="Fill-6" fill="#A3A3A3"></path>
                        <path d="M15.9560199,6.77161389 C16.8082536,6.77161389 17.5,7.3494961 17.5,8.06160274 C17.5,8.77402463 16.8082536,9.35127632 15.9560199,9.35127632 C15.1031442,9.35127632 14.4117647,8.77402463 14.4117647,8.06160274 C14.4117647,7.3494961 15.1031442,6.77161389 15.9560199,6.77161389 Z" id="Fill-7" fill="#A3A3A3"></path>
                        <path d="M13.8972422,11.9309388 C14.7505511,11.9309388 15.4411765,12.5085964 15.4411765,13.2212038 C15.4411765,13.9329436 14.7505511,14.5106012 13.8972422,14.5106012 C13.0443002,14.5106012 12.3529412,13.9329436 12.3529412,13.2212038 C12.3529412,12.5085964 13.0443002,11.9309388 13.8972422,11.9309388 Z" id="Fill-8" fill="#A3A3A3"></path>
                        <path d="M11.4953273,17.0902636 C12.3480004,17.0902636 13.0392157,17.6681282 13.0392157,18.3814741 C13.0392157,19.0932437 12.3480004,19.669926 11.4953273,19.669926 C10.6425625,19.669926 9.95098039,19.0932437 9.95098039,18.3814741 C9.95098039,17.6681282 10.6425625,17.0902636 11.4953273,17.0902636 Z" id="Fill-9" fill="#A3A3A3"></path>
                    </g>
                </g>
            </g>
        </g>
    </g>
</svg>