<svg width="57px" height="53px" viewBox="0 0 57 53" version="1.1" xmlns="http://www.w3.org/2000/svg" xmlns:xlink="http://www.w3.org/1999/xlink">
    <defs>
        <polygon id="path-1" points="0 0.00767320948 56.1190094 0.00767320948 56.1190094 52.2579212 0 52.2579212"></polygon>
    </defs>
    <g id="Page-1" stroke="none" stroke-width="1" fill="none" fill-rule="evenodd">
        <g id="Voucher_overzicht_V1" transform="translate(-284.000000, -631.000000)">
            <g id="Bottom-Navigatie---Gereserveerd" transform="translate(0.000000, 617.000000)">
                <g id="Bottom-Navigatie">
                    <g id="icon" transform="translate(284.000000, 14.000000)">
                        <g id="Group-3">
                            <mask id="mask-2" fill="white">
                                <use xlink:href="#path-1"></use>
                            </mask>
                            <g id="Clip-2"></g>
                            <path d="M55.8182182,8.20478275 C55.5029564,7.70953094 54.9839018,7.36265471 54.3850036,7.24973996 L22.5967418,0.0457258065 C21.5491309,-0.145442725 20.5154182,0.398734365 20.1530727,1.33977946 L8.03655273,30.2750165 L12.0812073,31.6607883 L23.5639418,4.14811718 L51.1841673,10.7730267 C49.4590909,15.7997992 45.3547309,26.2919388 41.4197018,36.0611307 C37.9895455,44.584661 36.01572,47.5035138 32.2636364,48.0992824 C32.25924,48.0950165 32.2552691,48.0914171 32.2552691,48.0851514 C24.58716,49.0953851 24.7245818,39.9063644 24.7245818,39.9063644 L0.235418182,30.6073618 C-1.50454909,40.9764549 6.97064727,43.4703111 6.97064727,43.4703111 L24.90072,51.1221182 C24.9045491,51.1242512 27.7038982,52.3776448 30.7457564,52.2485994 C38.9512145,52.0672959 41.8346618,46.4666178 45.4477636,37.4936949 C50.6678073,24.5255629 55.9655673,9.99555464 56.0176145,9.84144668 C56.2042473,9.2915372 56.1306436,8.69843483 55.8182182,8.20478275 Z" id="Fill-1" fill="#FFC546" mask="url(#mask-2)"></path>
                        </g>
                        <path d="M41.3009373,20.1057263 C41.489294,20.1533738 41.6845208,20.1788566 41.8773145,20.1788566 C42.8301189,20.1788566 43.702199,19.589302 43.9694194,18.6955468 C44.2870208,17.6212886 43.6010074,16.5118588 42.4448178,16.2194705 L33.0285569,13.5245344 C31.8852488,13.2310843 30.6753862,13.8615175 30.3595023,14.934714 C30.0441909,16.0084413 30.7234773,17.117871 31.8846763,17.411852 L41.3009373,20.1057263 Z" id="Fill-4" fill="#FFC546"></path>
                        <path d="M26.540277,22.6093069 C26.160861,23.6836898 26.7760293,24.8408627 27.9180128,25.1996645 L37.3195153,28.3529674 C37.5479407,28.4241614 37.7719126,28.4562527 37.9986141,28.4573313 C38.9156201,28.4620507 39.7741549,27.9190612 40.0805898,27.059474 C40.4604369,25.9875183 39.8465615,24.8288622 38.7001244,24.4700603 L29.3023572,21.3193194 C28.1536215,20.9622705 26.923572,21.5395085 26.540277,22.6093069 Z" id="Fill-5" fill="#FFC546"></path>
                        <path d="M25.9825442,30.115486 C24.8400597,29.7556736 23.6073527,30.3427147 23.2336964,31.4217469 C22.8583189,32.4924083 23.4841393,33.6542042 24.6260501,34.0055108 L34.032434,37.149853 C34.2593531,37.2220855 34.4851247,37.2532737 34.713765,37.2532737 C35.6270354,37.2532737 36.4793446,36.7057917 36.7801343,35.8456172 C37.1556553,34.7686102 36.5319864,33.6089745 35.3900757,33.257668 L25.9825442,30.115486 Z" id="Fill-6" fill="#FFC546"></path>
                        <path d="M25.6025737,10.8655382 C26.9700435,10.8655382 28.08,11.7927915 28.08,12.9354174 C28.08,14.0785492 26.9700435,15.0047908 25.6025737,15.0047908 C24.2340737,15.0047908 23.1247059,14.0785492 23.1247059,12.9354174 C23.1247059,11.7927915 24.2340737,10.8655382 25.6025737,10.8655382 Z" id="Fill-7" fill="#FFC546"></path>
                        <path d="M22.2991178,19.1440434 C23.6683128,19.1440434 24.7764706,20.0709363 24.7764706,21.2143658 C24.7764706,22.3564032 23.6683128,23.2832961 22.2991178,23.2832961 C20.9305114,23.2832961 19.8211765,22.3564032 19.8211765,21.2143658 C19.8211765,20.0709363 20.9305114,19.1440434 22.2991178,19.1440434 Z" id="Fill-8" fill="#FFC546"></path>
                        <path d="M18.4450737,27.4225487 C19.8132486,27.4225487 20.9223529,28.3497737 20.9223529,29.4943881 C20.9223529,30.6364733 19.8132486,31.5618013 18.4450737,31.5618013 C17.0767517,31.5618013 15.9670588,30.6364733 15.9670588,29.4943881 C15.9670588,28.3497737 17.0767517,27.4225487 18.4450737,27.4225487 Z" id="Fill-9" fill="#FFC546"></path>
                    </g>
                </g>
            </g>
        </g>
    </g>
</svg>