<svg width="79px" height="55px" viewBox="0 0 79 55" version="1.1" xmlns="http://www.w3.org/2000/svg" xmlns:xlink="http://www.w3.org/1999/xlink">
    <g id="Page-1" stroke="none" stroke-width="1" fill="none" fill-rule="evenodd">
        <g id="Productoverzicht_V1" transform="translate(-148.000000, -594.000000)" fill="#FFC546">
            <g id="Group" transform="translate(0.000000, 575.000000)">
                <g id="Sjef_Logo" transform="translate(148.000000, 19.000000)">
                    <path d="M72.9166161,31.3288645 C71.6920581,32.4137733 70.6519075,30.2996153 70.423149,29.4409953 C69.6934563,26.706368 69.0113826,24.0556866 68.115023,21.3689632 C67.9735663,20.9446717 67.8381786,20.463808 68.0529314,20.0696274 C68.4553596,19.3314514 69.3134371,19.3652123 69.9544276,19.7790106 C71.0926176,20.513993 71.2653536,22.6336257 71.6178283,23.8052177 C72.146307,25.5616934 72.6747857,27.3177128 73.2032644,29.0741884 C73.5351976,30.1768902 73.3372515,30.9561266 72.9166161,31.3288645 M66.7728179,33.4293356 C66.3829948,33.7313582 65.8157672,33.8531709 65.3923307,33.6173013 C65.0818728,33.4434786 64.9455514,33.0826027 64.8330396,32.7504692 C63.7242615,29.4875305 62.4492833,26.2401036 61.6411591,22.8895693 C61.5846697,22.6550684 61.5300478,22.4068806 61.602877,22.1764858 C61.6710377,21.9625151 61.8419063,21.7927985 62.034717,21.671442 C64.205121,20.3086906 64.6467649,24.4480422 65.0454582,25.7003865 C65.7518082,27.9222142 66.4595588,30.1431293 67.1780471,32.3613072 C67.312501,32.7751054 67.1084859,33.1688297 66.7728179,33.4293356 M60.4660876,35.3733207 C60.202782,35.7337404 59.7690747,35.8628528 59.1985791,35.4960459 C58.9137982,35.3130987 58.7508662,35.0005829 58.6056746,34.6994728 C57.1094076,31.5953013 56.4455413,28.2456794 55.4030564,24.9914091 C55.3232243,24.7432213 55.2429254,24.4868215 55.2676687,24.2276843 C55.3194895,23.6916171 55.854971,23.4990891 56.3143553,23.3813824 C57.0277082,23.1984352 57.4044593,23.5999154 57.6145436,24.2381776 C58.5496521,27.0791058 59.4847606,29.9200341 60.4194022,32.7614186 C60.5851354,33.2650937 60.7522691,33.7783496 60.7574045,34.3071172 C60.7611393,34.7181781 60.6593652,35.1082526 60.4660876,35.3733207 M27.1299133,9.714177 C26.9399037,10.1179383 26.4847211,10.3643011 26.0332733,10.3077289 C25.308716,10.2164834 24.8885474,9.47557005 25.1938699,8.82727085 C25.3848132,8.42305334 25.8395289,8.17669052 26.2909767,8.23326272 C27.0155341,8.32450821 27.4357026,9.06542158 27.1299133,9.714177 M72.6341694,16.0671441 C72.4987818,15.7637529 72.3372503,15.4749609 72.104757,15.2372664 C71.0986867,14.209386 69.3652579,14.5958106 67.9880387,15.0570566 C67.2676831,15.2984009 66.5468605,15.5402014 65.8265049,15.7810895 C65.6607717,15.8367493 65.4810329,15.8928652 65.3134324,15.8431364 C65.0734694,15.7715087 64.9520874,15.51739 64.8554486,15.2911012 C59.9772915,3.87492198 45.8736332,-2.31836552 33.7891183,0.806336217 C28.5883651,2.15083848 23.7872389,5.04651405 20.2368145,8.99561878 L20.1243027,9.20502717 C19.9861139,9.46233945 19.9632381,9.73561969 20.0552083,10.0253241 C20.145778,10.3136599 20.3264504,10.5244369 20.5902229,10.6599365 C21.7111393,11.2343268 22.8315888,11.8082609 23.9525052,12.3826513 C24.6364463,12.733034 25.3133845,13.1048593 26.0075964,13.4356242 C27.86941,14.3238991 29.4898601,12.2813688 31.040749,11.4514911 C34.7923874,9.44363412 39.1962209,8.55307816 43.4427246,9.17309125 C48.7405834,9.94594054 53.9235961,12.9547605 56.2517969,17.7903152 C56.3689772,18.0330282 56.4777542,18.3245575 56.344234,18.5595146 C56.2620677,18.7045949 56.1047379,18.7912782 55.9516098,18.8624496 C54.8475001,19.3725119 53.5757899,19.4245218 52.4432022,19.8697998 C49.8820414,20.8766938 50.5421729,23.3316536 51.0697178,25.4166131 C51.7135095,27.960081 52.7051073,30.403179 53.4119242,32.9293103 C54.0099641,35.0671921 54.5351748,37.2420283 55.2111794,39.3589236 C55.6042704,40.5907377 56.9455419,41.2778163 58.2060476,40.8932165 L77.3204495,35.0644547 C78.5809552,34.6803112 79.2840373,33.370026 78.8909463,32.1377557 C76.8694686,26.9422376 74.8479909,21.7467195 72.8307149,16.5493765 C72.7686234,16.3883282 72.7046644,16.2259113 72.6341694,16.0671441" id="Fill-10"></path>
                    <path d="M6.08338394,23.6709276 C7.3079419,22.5860183 8.34809253,24.7001772 8.57685098,25.5587976 C9.30654373,28.2938822 9.98861737,30.9441086 10.884977,33.6308331 C11.0264337,34.0551248 11.1618214,34.5359887 10.9470686,34.9301694 C10.5446404,35.668802 9.68656286,35.6350411 9.04557236,35.2207864 C7.90738239,34.4858037 7.73464642,32.3666263 7.38217168,31.1945775 C6.85369299,29.4385574 6.3252143,27.682081 5.79673561,25.9256046 C5.46480244,24.8229024 5.66274852,24.0436656 6.08338394,23.6709276 M12.2271821,21.5709118 C12.6170052,21.2684329 13.1842328,21.1466201 13.6076693,21.382946 C13.9181272,21.5563125 14.0544486,21.9171886 14.1669604,22.2493223 C15.2757385,25.5127186 16.5507167,28.7596907 17.3588409,32.1102264 C17.4153303,32.3451836 17.4699522,32.5933715 17.397123,32.8233102 C17.3289623,33.037281 17.1580937,33.2069976 16.965283,33.3283542 C14.794879,34.6911061 14.3532351,30.5517528 13.9545418,29.299408 C13.2481918,27.0775794 12.5404412,24.8566632 11.8219529,22.6384845 C11.687499,22.224686 11.8915141,21.8309616 12.2271821,21.5709118 M18.5339124,19.6264696 C18.797218,19.2660498 19.2309253,19.1373936 19.8014209,19.5042006 C20.0862018,19.6866917 20.2491338,19.9996639 20.3943254,20.3003179 C21.8910592,23.4049469 22.5544587,26.754114 23.5969436,30.0083857 C23.6767757,30.2570298 23.7570746,30.5129735 23.7323313,30.7721108 C23.6805105,31.3081782 23.145029,31.5007063 22.6861116,31.6188692 C21.9722918,31.8013603 21.5955407,31.39988 21.3854564,30.7616175 C20.4503479,27.920688 19.5152394,25.0797586 18.5805978,22.2383729 C18.4148646,21.7346975 18.2477309,21.2214415 18.2425955,20.6926736 C18.2388607,20.2820688 18.3406348,19.8915379 18.5339124,19.6264696 M51.8700867,45.2860805 C52.0600963,44.8818628 52.5152789,44.6354999 52.9667267,44.6920721 C53.691284,44.7828614 54.1114526,45.5242313 53.8061301,46.1725308 C53.6151868,46.5767485 53.1604711,46.8231114 52.7090233,46.7665392 C51.9844659,46.6757499 51.5642974,45.93438 51.8700867,45.2860805 M6.36583059,38.9326545 C6.50121824,39.2360458 6.66274971,39.5252942 6.89524299,39.7625325 C7.90131329,40.7904134 9.63474207,40.4039886 11.0119613,39.9427424 C11.7323169,39.701398 12.4531395,39.4595974 13.1734951,39.2187092 C13.3392283,39.1630494 13.5189671,39.1069334 13.6865676,39.1566622 C13.9265306,39.2287462 14.0479126,39.4824088 14.1445514,39.7082414 C19.0227085,51.125338 33.1263668,57.3186281 45.2108817,54.1934688 C50.4116349,52.848966 55.2127611,49.9532892 58.7631855,46.0041828 L58.8756973,45.7947743 C59.0138861,45.5374619 59.0367619,45.2641816 58.9447917,44.974477 C58.854222,44.6861412 58.6735496,44.475364 58.4097771,44.3403206 L55.0474948,42.6171488 C54.3635537,42.266766 53.6866155,41.8949405 52.9924036,41.5641754 C51.13059,40.6759002 49.5101399,42.7184314 47.959251,43.5478532 C44.2076126,45.5561673 39.8037791,46.4471798 35.5572754,45.8267102 C30.2594166,45.0538606 25.0764039,42.0450394 22.7482031,37.2099389 C22.6310228,36.9667696 22.5222458,36.6756963 22.655766,36.4402829 C22.7379323,36.2956587 22.8952621,36.208063 23.0483902,36.1373477 C24.1524999,35.6272852 25.4242101,35.5752753 26.5567978,35.1299971 C29.1179586,34.1231027 28.4578271,31.6681418 27.9302822,29.5836378 C27.2864905,27.0397125 26.2948927,24.5966135 25.5880758,22.0709373 C24.9900359,19.9325984 24.4648252,17.7577613 23.7888206,15.6413213 C23.3957296,14.4095066 22.0544581,13.7224278 20.7939524,14.1065715 L1.67955048,19.9353358 C0.419044767,20.3199357 -0.284037307,21.6297652 0.109053733,22.862036 C2.13053141,28.0575563 4.15200908,33.2530766 6.16928507,38.4508781 C6.23137665,38.6114702 6.29533564,38.7738872 6.36583059,38.9326545" id="Fill-12"></path>
                </g>
            </g>
        </g>
    </g>
</svg>