<svg width="33px" height="23px" viewBox="0 0 33 23" version="1.1" xmlns="http://www.w3.org/2000/svg" xmlns:xlink="http://www.w3.org/1999/xlink">
    <g id="Page-1" stroke="none" stroke-width="1" fill="none" fill-rule="evenodd">
        <g id="Productoverzicht_map_V3" transform="translate(-110.000000, -423.000000)" fill="#FFFFFF">
            <g id="Sjef_Logo" transform="translate(110.000000, 423.000000)">
                <path d="M30.4588396,13.1011615 C29.9473154,13.5548507 29.5128221,12.6707482 29.4172648,12.3116889 C29.1124564,11.1681175 28.8275396,10.0596508 28.4531109,8.93611188 C28.3940213,8.75868088 28.337467,8.55759242 28.4271739,8.3927533 C28.5952768,8.08406151 28.9537143,8.09817968 29.2214698,8.2712226 C29.6969162,8.57857888 29.7690717,9.46497073 29.916308,9.95490923 C30.137065,10.6894354 30.3578219,11.4237708 30.5785788,12.158297 C30.7172344,12.6194268 30.6345481,12.9452893 30.4588396,13.1011615 M27.8924429,13.9795403 C27.7296054,14.1058407 27.4926623,14.1567806 27.3157837,14.0581442 C27.1860988,13.9854547 27.1291544,13.834543 27.0821558,13.6956507 C26.6189953,12.3311491 26.0864095,10.9731342 25.7488386,9.57200169 C25.7252418,9.47393767 25.702425,9.37015008 25.7328474,9.27380314 C25.7613196,9.1843245 25.832695,9.1133521 25.9132362,9.06260301 C26.8198607,8.49272517 27.0043448,10.2237267 27.1708876,10.7474344 C27.4659452,11.6765623 27.7615879,12.6053086 28.0617159,13.5329103 C28.1178802,13.7059532 28.0326587,13.8706015 27.8924429,13.9795403 M25.257986,14.7924796 C25.1479975,14.9432005 24.9668287,14.997193 24.7285204,14.843801 C24.6095613,14.7672958 24.5415011,14.6366074 24.4808514,14.5106886 C23.8558285,13.2125805 23.5785172,11.8118296 23.1430489,10.4509529 C23.1097013,10.3471653 23.0761587,10.2399435 23.0864945,10.1315771 C23.1081412,9.90740351 23.3318233,9.82689181 23.523718,9.77766902 C23.8217009,9.70116383 23.9790779,9.86905552 24.0668347,10.1359652 C24.4574496,11.3239897 24.8480645,12.5120143 25.2384845,13.7002296 C25.3077148,13.9108574 25.3775301,14.1254916 25.3796753,14.3466126 C25.3812354,14.5185108 25.3387222,14.6816329 25.257986,14.7924796 M11.3327486,4.0622922 C11.2533775,4.23113783 11.0632379,4.33416228 10.8746585,4.31050481 C10.5719953,4.27234761 10.3964818,3.96251111 10.5240216,3.69140417 C10.6037827,3.52236776 10.7937273,3.41934331 10.9823067,3.44300078 C11.2849699,3.48115798 11.4604834,3.79099448 11.3327486,4.0622922 M30.3408556,6.71898754 C30.2843012,6.59211483 30.2168261,6.47134728 30.1197086,6.37194776 C29.6994514,5.94210686 28.9753609,6.10370262 28.4000668,6.29658729 C28.0991587,6.39751309 27.7980557,6.49862968 27.4971476,6.5993647 C27.4279173,6.6226406 27.3528365,6.64610728 27.2828262,6.6253116 C27.1825885,6.59535819 27.1318846,6.48909038 27.0915165,6.39446052 C25.0538053,1.62042192 19.1624037,-0.96949831 14.1144418,0.337195145 C11.9419753,0.899441548 9.93644156,2.11036042 8.45335288,3.76180422 L8.40635428,3.849375 C8.34862986,3.95697832 8.33907412,4.07125914 8.37749207,4.19240826 C8.41532497,4.31298503 8.49079575,4.40112817 8.6009792,4.45779162 C9.06921009,4.69799122 9.53724596,4.93800003 10.0054769,5.17819963 C10.2911738,5.3247233 10.5739454,5.4802139 10.8639327,5.61853377 C11.6416523,5.98999415 12.3185492,5.13584514 12.9663888,4.78880537 C14.5335289,3.94915609 16.3731049,3.57674178 18.1469609,3.83601998 C20.3599905,4.1592115 22.5250465,5.4174453 23.497586,7.43958634 C23.5465348,7.5410845 23.5919733,7.66299677 23.536199,7.76125157 C23.5018764,7.82192152 23.4361563,7.85817087 23.3721914,7.88793348 C22.9109811,8.10123226 22.3797604,8.12298186 21.9066541,8.30918902 C20.8368021,8.73025377 21.1125532,9.75687334 21.3329201,10.6287655 C21.6018457,11.6923975 22.0160575,12.7140567 22.3113101,13.7704389 C22.5611243,14.6644622 22.7805161,15.5739391 23.0628977,16.4591862 C23.2271003,16.9743085 23.7873782,17.2616323 24.3139186,17.1007996 L32.2984156,14.6633174 C32.824956,14.5026756 33.1186485,13.9547382 32.9544459,13.4394251 C32.1100312,11.2667539 31.2656165,9.09408271 30.4229569,6.92064836 C30.3970199,6.85330089 30.3703028,6.78538107 30.3408556,6.71898754" id="Fill-10"></path>
                <path d="M2.54116038,9.89875155 C3.05268459,9.4450622 3.48717789,10.329165 3.58273522,10.6882244 C3.88754358,11.8319871 4.17246042,12.9402636 4.54688912,14.0638029 C4.60597865,14.241234 4.66253299,14.4423226 4.57282611,14.6071618 C4.40472322,14.9160445 4.04628575,14.9019263 3.77853023,14.7286925 C3.30308378,14.4213361 3.23092825,13.5351347 3.08369197,13.0450052 C2.86293505,12.3106695 2.64217812,11.576143 2.4214212,10.8416165 C2.28276557,10.3804865 2.36545191,10.0546238 2.54116038,9.89875155 M5.1075571,9.02056313 C5.27039458,8.89407194 5.50733774,8.84313205 5.6842163,8.94195925 C5.81390124,9.01445797 5.8708456,9.16536978 5.91784421,9.30426206 C6.38100471,10.668955 6.91359053,12.0267797 7.25116141,13.4279129 C7.27475821,13.5261677 7.29757496,13.6299553 7.26715263,13.7261115 C7.23868045,13.8155902 7.16730498,13.8865627 7.0867638,13.9373118 C6.18013931,14.5071898 5.99565517,12.7761875 5.8291124,12.2524797 C5.53405479,11.3233514 5.23841213,10.3946046 4.93828412,9.4670026 C4.88211982,9.29395961 4.96734135,9.1293112 5.1075571,9.02056313 M7.74201403,8.20743276 C7.85200246,8.05671174 8.03317135,8.00291006 8.27147961,8.15630209 C8.39043873,8.23261653 8.45849895,8.36349579 8.5191486,8.48922383 C9.14436652,9.78752326 9.42148276,11.188084 9.85695114,12.5489613 C9.8902987,12.6529397 9.92384127,12.7599707 9.91350548,12.8683372 C9.89185882,13.0925109 9.66817667,13.1730226 9.47647698,13.2224362 C9.17829912,13.2987507 9.02092206,13.1308589 8.93316533,12.8639491 C8.54255039,11.6759241 8.15193545,10.487899 7.76151552,9.29968319 C7.69228522,9.08905534 7.62246987,8.87442097 7.6203247,8.65329988 C7.61876458,8.48159239 7.66127784,8.31827949 7.74201403,8.20743276 M21.6672514,18.9378155 C21.7466225,18.768779 21.9367621,18.6657545 22.1253415,18.689412 C22.4280047,18.7273784 22.6035182,19.0374058 22.4759784,19.3085129 C22.3962173,19.4775494 22.2062727,19.5805739 22.0176933,19.5569164 C21.7150301,19.5189499 21.5395166,19.2089225 21.6672514,18.9378155 M2.65914442,16.2809282 C2.71569876,16.407801 2.78317393,16.5287594 2.88029138,16.6279681 C3.30054859,17.0578092 4.02463909,16.8962134 4.59993319,16.7033287 C4.90084125,16.6024028 5.20194433,16.5012862 5.5028524,16.4005511 C5.5720827,16.3772752 5.64716346,16.3538085 5.71717382,16.3746042 C5.81741151,16.4047484 5.86811539,16.5108255 5.90848349,16.6052646 C7.94619468,21.3796868 13.8375963,23.9696081 18.8855582,22.6627233 C21.0580247,22.1004767 23.0635584,20.8895573 24.5466471,19.2381128 L24.5936457,19.150542 C24.6513701,19.0429386 24.6609259,18.9286577 24.6225079,18.8075086 C24.584675,18.6869318 24.5092042,18.5987886 24.3990208,18.5423159 L22.9945231,17.8217168 C22.7088262,17.6751931 22.4260546,17.5197024 22.1360673,17.3813825 C21.3583477,17.0099219 20.6814508,17.8640713 20.0336112,18.2109204 C18.4664711,19.0507609 16.6268951,19.4233661 14.8530391,19.163897 C12.6400095,18.8407054 10.4749535,17.582471 9.50241397,15.5605199 C9.45346521,15.4588309 9.40802673,15.3371094 9.46380101,15.2386638 C9.49812364,15.1781846 9.56384367,15.1415536 9.62780858,15.1119818 C10.0890189,14.8986829 10.6202396,14.8769333 11.0933459,14.6907261 C12.1631979,14.2696611 11.8874468,13.2430411 11.6670799,12.3713394 C11.3981543,11.3075161 10.9839425,10.2858566 10.6886899,9.22966469 C10.4388757,8.33545024 10.2194839,7.42597289 9.93710229,6.54091616 C9.7728997,6.02579369 9.21262175,5.73846982 8.68608139,5.89911172 L0.701584376,8.33659495 C0.175044017,8.49742764 -0.118648495,9.04517453 0.045554091,9.56048779 C0.889968816,11.7331599 1.73438354,13.905832 2.57704313,16.0794581 C2.60298012,16.1466148 2.62969717,16.2145347 2.65914442,16.2809282" id="Fill-12"></path>
            </g>
        </g>
    </g>
</svg>