
<svg width="47px" height="32px" viewBox="0 0 47 32" version="1.1" xmlns="http://www.w3.org/2000/svg" xmlns:xlink="http://www.w3.org/1999/xlink">
    <g id="Page-1" stroke="none" stroke-width="1" fill="none" fill-rule="evenodd">
        <g id="Home_V10_01" transform="translate(-164.000000, -811.000000)" fill="#A3A3A3">
            <g id="Bottom-Navigatie---Home" transform="translate(0.000000, 777.000000)">
                <g id="Bottom-Navigatie">
                    <g id="Group">
                        <g id="Sjef_Logo" transform="translate(164.000000, 34.000000)">
                            <path d="M43.3912129,18.3388475 C42.6647802,18.9739161 42.0477417,17.7363602 41.9120376,17.2337533 C41.479169,15.6329959 41.074549,14.0813775 40.5428103,12.5086614 C40.4588952,12.2602956 40.3785805,11.9788144 40.5059763,11.7480746 C40.7447048,11.3159716 41.2537339,11.335734 41.6339825,11.5779574 C42.3091799,12.008191 42.4116504,13.2489516 42.6207456,13.9347616 C42.9342499,14.9629425 43.2477542,15.9908563 43.5612585,17.0190371 C43.758168,17.6645211 43.6407424,18.1206595 43.3912129,18.3388475 M39.7465869,19.5683916 C39.5153359,19.7451853 39.178845,19.8164903 38.9276538,19.6784203 C38.7434839,19.5766704 38.6626153,19.365426 38.595871,19.1710063 C37.9381212,17.2609935 37.1817782,15.3600606 36.7023825,13.3987722 C36.6688719,13.2615034 36.636469,13.1162228 36.6796728,12.9813575 C36.7201071,12.8561064 36.8214698,12.7567601 36.935849,12.6857221 C38.2233769,11.888014 38.485369,14.3110491 38.721882,15.0441287 C39.1409032,16.3447107 39.5607552,17.6447586 39.9869771,18.9432042 C40.0667379,19.1854276 39.945712,19.4159003 39.7465869,19.5683916 M36.0053062,20.7063341 C35.849108,20.9173115 35.5918239,20.9928894 35.2533944,20.7781732 C35.0844566,20.6710822 34.987802,20.4881461 34.9016714,20.3118865 C34.0140554,18.4948105 33.6202363,16.5340562 33.0018131,14.6291175 C32.9544551,14.4838369 32.9068202,14.3337492 32.9214984,14.1820591 C32.9522395,13.8682637 33.269898,13.7555644 33.5424142,13.6866629 C33.9655896,13.5795718 34.189086,13.8145846 34.3137123,14.1882015 C34.8684377,15.8511839 35.4231631,17.5141663 35.9776115,19.1774158 C36.0759278,19.47225 36.1750749,19.7726924 36.1781213,20.0822149 C36.1803369,20.322836 36.1199624,20.5511722 36.0053062,20.7063341 M16.2296096,5.68634751 C16.116892,5.92269558 15.8468685,6.06690796 15.5790604,6.03379253 C15.1492383,5.98038053 14.8999857,5.54667515 15.0811093,5.16718294 C15.1943807,4.93056781 15.4641273,4.78635543 15.7319353,4.81947086 C16.1617575,4.87288286 16.41101,5.30658824 16.2296096,5.68634751 M43.2236598,9.40515753 C43.1433451,9.22756265 43.0475214,9.05851369 42.9096016,8.91937545 C42.3127803,8.31768935 41.284475,8.54388914 40.4674806,8.81388676 C40.040151,8.95516149 39.6125444,9.09670327 39.1852148,9.23771093 C39.0868985,9.27029224 38.9802738,9.30314062 38.8808497,9.27403108 C38.7384988,9.23210267 38.6664925,9.08335027 38.6091644,8.95088853 C35.7153424,2.26824701 27.3487655,-1.35709201 20.1799854,0.472001688 C17.0947928,1.25902741 14.2466671,2.95405701 12.1404832,5.26572806 L12.0737389,5.38830859 C11.9917625,5.53893041 11.9781921,5.69889933 12.0327507,5.86848241 C12.0864784,6.0372643 12.193657,6.16064601 12.3501322,6.23996282 C13.0150826,6.57619131 13.6797561,6.91215275 14.3447065,7.24838125 C14.7504342,7.4534833 15.1520078,7.67113717 15.5638283,7.86475565 C16.6682941,8.3847214 17.629578,7.18909393 18.5495968,6.70331186 C20.7751451,5.52798095 23.3875887,5.0066799 25.906701,5.36961439 C29.0494986,5.82201397 32.1241672,7.58327444 33.5053032,10.413843 C33.574817,10.5559189 33.6393457,10.7265702 33.5601388,10.8641061 C33.5113961,10.9490312 33.4180648,10.9997726 33.3272261,11.0414339 C32.6722458,11.340007 31.9178415,11.3704518 31.2459674,11.6311023 C29.7266347,12.2205037 30.1182381,13.6575534 30.4311885,14.8780174 C30.8130988,16.3668767 31.4013348,17.7969828 31.820633,19.2756938 C32.1754024,20.5271368 32.4869681,21.8002117 32.8879878,23.0393699 C33.1211774,23.7604318 33.9168469,24.1626241 34.6646045,23.9374926 L46.0036565,20.5255345 C46.7514141,20.30067 47.1684967,19.5336738 46.9353071,18.8123448 C45.7361254,15.7710659 44.5369438,12.729787 43.3402546,9.68743991 C43.3034206,9.59316774 43.2654789,9.49809439 43.2236598,9.40515753" id="Fill-10"></path>
                            <path d="M3.60878708,13.6610308 C4.33521977,13.0259619 4.95225828,14.2635183 5.08796244,14.7661254 C5.52083102,16.3671506 5.92545098,17.9185026 6.45718974,19.4912194 C6.54110476,19.7395853 6.62141947,20.0210666 6.49402373,20.2518065 C6.25529518,20.6841768 5.7462661,20.6644143 5.3660175,20.4219238 C4.69082006,19.99169 4.58834957,18.7511959 4.37925438,18.0651186 C4.06575008,17.0372043 3.75224577,16.009023 3.43874146,14.9808417 C3.24183195,14.3353575 3.3592576,13.8792189 3.60878708,13.6610308 M7.25341313,12.4317533 C7.4846641,12.2546924 7.82115503,12.1833874 8.07234621,12.3217245 C8.25651614,12.4232073 8.33738474,12.6344519 8.40412903,12.8288716 C9.0618788,14.7391523 9.81822179,16.6398189 10.2976175,18.6011081 C10.3311281,18.7386441 10.363531,18.8839248 10.3203272,19.018523 C10.2798929,19.1437742 10.1785302,19.2431206 10.064151,19.3141586 C8.77662311,20.111867 8.51463099,17.6888309 8.27811803,16.955751 C7.85909681,15.6551684 7.43924475,14.35512 7.01302291,13.0566738 C6.93326209,12.8144504 7.05428805,12.5839775 7.25341313,12.4317533 M10.9946938,11.2935432 C11.150892,11.0825657 11.4081761,11.0072548 11.7466056,11.2219711 C11.9155434,11.3287951 12.012198,11.5119984 12.0983286,11.6879909 C12.9862216,13.5053348 13.3797637,15.4658228 13.9981869,17.3707624 C14.0455449,17.5163101 14.0931798,17.6661308 14.0785016,17.8178209 C14.0477605,18.1316165 13.730102,18.2443159 13.4578628,18.3134844 C13.0344104,18.4203085 12.810914,18.1852956 12.6862877,17.8116785 C12.1315623,16.1486954 11.5768369,14.4857123 11.0223885,12.8224622 C10.9240722,12.5276278 10.8249251,12.2271852 10.8218787,11.9176626 C10.8196631,11.6773085 10.8800376,11.4487051 10.9946938,11.2935432 M30.7703904,26.3138032 C30.883108,26.077188 31.1531315,25.9329755 31.4209396,25.966091 C31.8507617,26.0192359 32.1000143,26.4532086 31.9188907,26.8327009 C31.8056193,27.0693162 31.5358727,27.2135286 31.2680647,27.1804132 C30.8382425,27.1272682 30.58899,26.6932956 30.7703904,26.3138032 M3.77634018,22.5947246 C3.85665489,22.7723195 3.95247864,22.9416356 4.09039838,23.0805068 C4.68721975,23.6821932 5.71552495,23.4559933 6.5325194,23.1859956 C6.95984903,23.0447208 7.38745561,22.9031789 7.81478525,22.7621712 C7.91310153,22.7295899 8.01972623,22.6967415 8.1191503,22.7258511 C8.26150119,22.7680465 8.33350748,22.916532 8.39083557,23.0487267 C11.2846576,29.7319052 19.6512345,33.3572457 26.8200146,31.5278842 C29.9052072,30.7408581 32.7533329,29.0458278 34.8595168,26.7341558 L34.9262611,26.6115752 C35.0082375,26.4609533 35.0218079,26.3009843 34.9672493,26.1314012 C34.9135216,25.9626192 34.806343,25.8392375 34.6498678,25.7601877 L32.6552935,24.7515018 C32.2495658,24.5463996 31.8479922,24.3287456 31.4361717,24.1351271 C30.3317059,23.6151611 29.370422,24.8107891 28.4504032,25.2963043 C26.2248549,26.4719028 23.6124113,26.9934711 21.093299,26.6302694 C17.9505014,26.1778696 14.8758328,24.4166084 13.4946968,21.5863057 C13.425183,21.4439627 13.3606543,21.2735783 13.4398612,21.1357753 C13.4886039,21.0511173 13.5819352,20.9998418 13.6727739,20.9584475 C14.3277542,20.6598743 15.0821585,20.6294294 15.7540326,20.3687788 C17.2733653,19.7793772 16.8817619,18.3423269 16.5688115,17.1221294 C16.1869012,15.6330024 15.5986652,14.2028957 15.179367,12.7244511 C14.8245976,11.4727405 14.5130319,10.1996651 14.1120122,8.96077342 C13.8788226,8.23971121 13.0831531,7.83751873 12.3353955,8.06238332 L0.996343503,11.4743429 C0.248585879,11.6994745 -0.168496707,12.466204 0.0646928925,13.1875333 C1.26387456,16.2288135 2.46305624,19.2700936 3.65974538,22.3127091 C3.69657937,22.4067143 3.73452114,22.5017877 3.77634018,22.5947246" id="Fill-12"></path>
                        </g>
                    </g>
                </g>
            </g>
        </g>
    </g>
</svg>