
<svg width="15px" height="11px" viewBox="0 0 15 11" version="1.1" xmlns="http://www.w3.org/2000/svg" xmlns:xlink="http://www.w3.org/1999/xlink">
    <g id="Page-1" stroke="none" stroke-width="1" fill="none" fill-rule="evenodd">
        <g id="Home_V10_01" transform="translate(-87.000000, -631.000000)" fill="#FFC546">
            <g id="Albert-Heijn" transform="translate(5.000000, 538.000000)">
                <g id="Aantal-producten" transform="translate(82.000000, 91.000000)">
                    <g id="Sjef_Logo" transform="translate(0.000000, 2.000000)">
                        <path d="M13.8658098,6.11294916 C13.6375024,6.32463869 13.443576,5.91212007 13.4009261,5.74458445 C13.2648817,5.21099864 13.1377154,4.69379251 12.9705975,4.16955379 C12.9442242,4.08676521 12.9189825,3.99293814 12.9590211,3.91602487 C13.0340501,3.77199053 13.1940307,3.77857801 13.3135374,3.85931913 C13.5257423,4.00273034 13.5579473,4.4163172 13.6236629,4.64492053 C13.7221928,4.98764749 13.8207228,5.33028542 13.9192527,5.67301238 C13.9811385,5.88817369 13.9442333,6.04021983 13.8658098,6.11294916 M12.7203559,6.52279719 C12.647677,6.58172842 12.5419227,6.60549676 12.4629769,6.55947342 C12.4050949,6.52555681 12.3796791,6.455142 12.3587023,6.39033545 C12.1519809,5.75366449 11.9142732,5.12002021 11.7636059,4.46625742 C11.753074,4.42050114 11.7428903,4.37207427 11.7564686,4.32711917 C11.7691765,4.2853688 11.8010334,4.25225336 11.8369811,4.22857405 C12.2416327,3.96267134 12.3239731,4.7703497 12.3983058,5.01470956 C12.5299981,5.44823691 12.6619516,5.88158621 12.7959071,6.3144014 C12.8209748,6.39514253 12.782938,6.47196678 12.7203559,6.52279719 M11.5445248,6.90211136 C11.4954339,6.97243715 11.4145732,6.99762981 11.3082097,6.92605774 C11.2551149,6.89036072 11.2247378,6.82938203 11.1976681,6.77062884 C10.9187031,6.16493684 10.7949314,5.51135208 10.6005698,4.8763725 C10.5856859,4.82794563 10.5707149,4.7779164 10.5753281,4.72735304 C10.5849896,4.62275456 10.6848251,4.58518812 10.770473,4.56222096 C10.903471,4.52652395 10.9737128,4.60486154 11.012881,4.7294005 C11.1872233,5.28372797 11.3615655,5.83805544 11.5358208,6.39247193 C11.5667202,6.49074999 11.5978807,6.59089748 11.5988381,6.69407165 C11.5995345,6.77427866 11.5805596,6.85039075 11.5445248,6.90211136 M5.32930587,1.89544917 C5.29388036,1.97423186 5.2090158,2.02230265 5.12484757,2.01126418 C4.9897606,1.99346018 4.91142409,1.84889172 4.96834862,1.72239431 C5.00394822,1.6435226 5.08872573,1.59545181 5.17289396,1.60649029 C5.30798093,1.62429429 5.38631744,1.76886275 5.32930587,1.89544917 M13.8131502,3.13505251 C13.7879085,3.07585422 13.7577924,3.01950456 13.7144462,2.97312515 C13.5268738,2.77256312 13.2036922,2.84796305 12.9469225,2.93796225 C12.8126189,2.98505383 12.6782282,3.03223442 12.5439246,3.07923698 C12.5130252,3.09009741 12.4795146,3.10104687 12.4482671,3.09134369 C12.4035282,3.07736756 12.3808976,3.02778342 12.3628803,2.98362951 C11.4533933,0.756082338 8.82389771,-0.452364005 6.57085256,0.157333896 C5.60122061,0.419675802 4.70609539,0.984685668 4.04415185,1.75524269 L4.02317507,1.79610286 C3.99741107,1.84631014 3.99314608,1.89963311 4.01029307,1.9561608 C4.02717894,2.01242143 4.06086364,2.05354867 4.11004156,2.07998761 C4.31902597,2.19206377 4.52792334,2.30405092 4.73690775,2.41612708 C4.86442218,2.48449443 4.99063101,2.55704572 5.12006034,2.62158522 C5.46717813,2.79490713 5.76929595,2.39636464 6.05844472,2.23443729 C6.75790274,1.84266032 7.57895644,1.6688933 8.37067747,1.78987146 C9.35841385,1.94067132 10.3247383,2.52775815 10.7588096,3.47128101 C10.7806568,3.51863964 10.8009372,3.57552341 10.7760436,3.62136871 C10.7607245,3.64967706 10.7313918,3.66659086 10.7028425,3.68047798 C10.4969916,3.78000233 10.259893,3.7901506 10.0487326,3.87703411 C9.57122805,4.07350123 9.69430341,4.55251778 9.79265926,4.95933913 C9.9126882,5.45562557 10.0975624,5.93232761 10.2293418,6.42523128 C10.3408408,6.84237895 10.4387614,7.26673723 10.5647962,7.67978998 C10.6380843,7.92014395 10.8881519,8.05420805 11.1231614,7.9791642 L14.6868635,6.84184483 C14.921873,6.76689 15.0529561,6.51122459 14.9796679,6.2707816 C14.6027823,5.25702197 14.2258966,4.24326234 13.8497943,3.22914664 C13.8382179,3.19772258 13.8262934,3.16603146 13.8131502,3.13505251" id="Fill-10"></path>
                        <path d="M1.13419023,4.88701027 C1.36249764,4.67532065 1.55642403,5.08783945 1.59907391,5.25537514 C1.73511832,5.78905019 1.86228459,6.30616753 2.02940249,6.83040646 C2.05577578,6.91319509 2.08101755,7.00702219 2.04097889,7.0839355 C1.96594991,7.22805892 1.80596935,7.22147144 1.68646264,7.14064125 C1.47425773,6.99722999 1.44205272,6.58373197 1.37633709,6.35503952 C1.27780717,6.01240144 1.17927724,5.66967434 1.08074732,5.32694724 C1.01886147,5.11178583 1.05576667,4.95973963 1.13419023,4.88701027 M2.27964413,4.47725109 C2.352323,4.41823081 2.4580773,4.39446246 2.53702309,4.44057484 C2.59490507,4.47440245 2.62032092,4.54481729 2.6412977,4.60962387 C2.84801905,5.24638411 3.08572685,5.87993964 3.23639407,6.53370271 C3.24692598,6.57954803 3.25710973,6.62797492 3.2435314,6.67284101 C3.23082348,6.71459141 3.19896663,6.74770686 3.16301887,6.77138618 C2.75836726,7.037289 2.67602688,6.2296103 2.60169424,5.98525033 C2.47000185,5.5517228 2.33804835,5.11837332 2.20409291,4.68555795 C2.17902523,4.60481679 2.21706196,4.5279925 2.27964413,4.47725109 M3.45547519,4.09784774 C3.50456607,4.02752192 3.58542676,4.00241827 3.69179034,4.07399037 C3.74488508,4.10959838 3.77526224,4.17066612 3.80233186,4.22933031 C4.08138393,4.83511159 4.20506858,5.48860761 4.39943017,6.12358745 C4.41431411,6.17210337 4.42928509,6.2220436 4.42467194,6.27260698 C4.41501043,6.37720551 4.3151749,6.41477196 4.22961402,6.43782815 C4.09652899,6.47343616 4.02628725,6.39509853 3.98711899,6.27055952 C3.81277673,5.71623181 3.63843447,5.16190411 3.46417925,4.60748739 C3.43327984,4.50920928 3.40211932,4.40906175 3.40116187,4.30588754 C3.40046555,4.22576951 3.41944039,4.14956837 3.45547519,4.09784774 M9.67069413,9.10460107 C9.70611964,9.02572933 9.7909842,8.97765851 9.87515243,8.988697 C10.0102394,9.00641198 10.0885759,9.15106953 10.0316514,9.27756698 C9.99605178,9.35643873 9.91127427,9.40450954 9.82710604,9.39347106 C9.69201907,9.37575607 9.61368256,9.23109853 9.67069413,9.10460107 M1.18684977,7.86490819 C1.21209154,7.9241065 1.24220757,7.9805452 1.28555378,8.02683561 C1.47312621,8.22739773 1.79630784,8.15199777 2.05307752,8.06199852 C2.18738112,8.01490693 2.32177176,7.96772632 2.45607536,7.92072374 C2.48697477,7.9098633 2.52048539,7.89891384 2.55173295,7.90861702 C2.5964718,7.92268218 2.61910235,7.97217732 2.63711975,8.01624223 C3.54660667,10.2439684 6.17610229,11.4524152 8.42914744,10.8426281 C9.39877939,10.580286 10.2939046,10.0152759 10.9558481,9.24471859 L10.9768249,9.2038584 C11.0025889,9.15365111 11.0068539,9.10032811 10.9897069,9.04380039 C10.9728211,8.98753974 10.9391364,8.94641248 10.8899584,8.92006256 L10.2630923,8.58383392 C10.1355778,8.51546654 10.009369,8.44291522 9.87993966,8.3783757 C9.53282187,8.20505371 9.23070405,8.60359636 8.94155528,8.76543477 C8.24209726,9.15730093 7.42104356,9.33115704 6.62932253,9.2100898 C5.64158615,9.05928988 4.67526174,8.47220281 4.24119041,7.52876857 C4.21934323,7.48132089 4.19906278,7.42452612 4.22395638,7.37859178 C4.23927552,7.35037243 4.26860819,7.33328059 4.2971575,7.31948249 C4.50300845,7.2199581 4.74010696,7.20980981 4.95126738,7.12292627 C5.42877195,6.92645907 5.30569659,6.44744231 5.20734074,6.04070981 C5.0873118,5.54433414 4.90243762,5.0676319 4.7706582,4.57481704 C4.65915923,4.15758017 4.56123859,3.73322171 4.43520384,3.32025781 C4.36191568,3.07990374 4.11184813,2.94583958 3.87683859,3.02079444 L0.313136529,4.15811429 C0.0781269904,4.23315818 -0.052956108,4.48873467 0.0203320519,4.72917776 C0.39721772,5.74293782 0.774103388,6.75669788 1.15020569,7.77090304 C1.16178209,7.80223809 1.17370665,7.83392922 1.18684977,7.86490819" id="Fill-12"></path>
                    </g>
                </g>
            </g>
        </g>
    </g>
</svg>