<svg width="25px" height="25px" viewBox="0 0 18 18" version="1.1" xmlns="http://www.w3.org/2000/svg" xmlns:xlink="http://www.w3.org/1999/xlink">
    <g id="Page-1" stroke="none" stroke-width="1" fill="none" fill-rule="evenodd">
        <g id="Home_V10_01" transform="translate(-342.000000, -35.000000)" fill="#707070">
            <g id="Top-Bar" transform="translate(0.000000, 19.000000)">
                <g id="Settings-/-account" transform="translate(342.000000, 16.000000)">
                    <path d="M12.7372942,10.3173832 C12.1775108,11.8960103 10.6753349,12.9550157 9.00269187,12.9550157 C8.5519562,12.9550157 8.10822913,12.8729504 7.67821781,12.7228492 C5.62273959,11.991351 4.54394322,9.72271087 5.27472131,7.65878167 C5.83450471,6.08022997 7.33675597,5.0211491 9.00932366,5.0211491 C9.46005932,5.0211491 9.90386175,5.10313905 10.3339484,5.25331568 C12.3892759,5.98443674 13.4680723,8.26016703 12.7372942,10.3173832 M17.413234,10.0650774 L16.3702342,9.46165547 C16.3340608,9.43759402 16.3098699,9.39535449 16.3098699,9.34715616 C16.3281073,8.96089072 16.3160495,8.56270769 16.2739979,8.17651767 C16.2678183,8.12824392 16.2860557,8.08600438 16.3219277,8.05575786 L17.3469914,7.36174724 C17.817095,7.04215992 17.9860549,6.43255294 17.7508524,5.91368552 L17.0817198,4.44729487 C16.8948239,4.03093375 16.4788298,3.76550354 16.0204826,3.76550354 C15.9180667,3.76550354 15.8218304,3.77749655 15.7131594,3.80751679 L14.5556859,4.13351548 C14.5132575,4.14558392 14.4653278,4.12755669 14.429079,4.09135137 C14.1638828,3.80170886 13.8803737,3.53009357 13.5851083,3.29483446 C13.5427553,3.26458793 13.524744,3.21616333 13.5368018,3.17407465 L13.7658246,1.95523783 C13.8744955,1.39382917 13.5609927,0.838756448 13.0243452,0.639551792 L11.504987,0.0724860563 C11.3722758,0.0241368762 11.2336111,0 11.0949464,0 C10.6790276,0 10.2930273,0.223341533 10.0823172,0.585470103 L9.47942716,1.62335578 C9.4552362,1.65933481 9.4190628,1.68354712 9.35869843,1.68354712 C8.95476211,1.65933481 8.54472152,1.67147868 8.14704018,1.71982786 C8.09873361,1.72601293 8.05042705,1.70760856 8.02013183,1.67147868 L7.33306326,0.65795616 C7.11579677,0.337840839 6.75428883,0.144972113 6.36836384,0.144972113 C6.19970535,0.144972113 6.03692504,0.181177427 5.88620253,0.247478409 L4.42102902,0.917201296 C3.90261894,1.15261127 3.63124307,1.72601293 3.78196558,2.28108566 L4.0954684,3.46379259 C4.1075262,3.50580584 4.08959022,3.55415502 4.05334145,3.58447697 C3.7881452,3.84387296 3.51669396,4.13351548 3.2756133,4.44729487 C3.24531808,4.48350018 3.19701152,4.50167827 3.15488457,4.49549319 L1.95535948,4.26008322 C1.88293732,4.24809021 1.81669477,4.24220685 1.74427261,4.24220685 C1.26791411,4.24220685 0.839937548,4.52558886 0.652966275,4.96027892 C0.646786652,4.96646399 0.646786652,4.97815529 0.640908474,4.98434036 L0.0742671992,6.50503899 C-0.124761875,7.04215992 0.0863249999,7.63939675 0.586723732,7.92896383 L1.6417813,8.53857081 C1.67803006,8.56270769 1.70184422,8.60487179 1.70184422,8.6532964 C1.68390824,9.04544521 1.69596604,9.4437791 1.74427261,9.82966741 C1.75015078,9.87809201 1.73221481,9.92629034 1.69596604,9.95057807 L0.677157238,10.6385545 C0.206676924,10.9581418 0.0380184356,11.5677488 0.273220912,12.0866916 L0.942353494,13.5530068 C1.12932477,13.9694434 1.54524353,14.234949 2.00328924,14.234949 C2.10608199,14.234949 2.20231831,14.2227297 2.30473426,14.1924832 L3.48670018,13.8787038 C3.52875176,13.8669371 3.57705832,13.8848889 3.6070521,13.9210188 C3.86644554,14.2106613 4.16171094,14.4762424 4.46933558,14.7237208 C4.50550898,14.7536656 4.52352032,14.8020902 4.51764215,14.8442543 L4.28831785,16.0452147 C4.17994836,16.6061708 4.49345118,17.1614698 5.02979723,17.3604482 L6.54915549,17.9278157 C6.68186666,17.9758631 6.82053137,18 6.95919608,18 C7.37511484,18 7.76111519,17.7769602 7.97212671,17.4149825 L8.58089492,16.3589941 C8.60508589,16.322638 8.64713747,16.2985765 8.70162365,16.2985765 C9.06931121,16.3164529 9.44905658,16.2985765 9.81704559,16.2622203 C9.8650507,16.256337 9.91328191,16.2744396 9.93747287,16.3106449 L10.6307211,17.336613 C10.8479876,17.6562758 11.2094955,17.8491445 11.5954205,17.8491445 C11.7643804,17.8491445 11.9271607,17.8130146 12.0778832,17.7466382 L13.5427553,17.0769153 C14.06109,16.8415054 14.3325413,16.2684054 14.1818187,15.713031 L13.8683159,14.5487284 C13.8562581,14.5061872 13.8744955,14.4581397 13.9103675,14.4220098 C14.2059343,14.1564287 14.471206,13.8728205 14.7064084,13.5711095 C14.7364022,13.5347533 14.7847088,13.5106919 14.8268357,13.5226849 L16.0446736,13.7519098 C16.1170958,13.7639782 16.1895179,13.7701633 16.2619401,13.7701633 C16.750281,13.7701633 17.1903908,13.4622673 17.3590492,13.0097008 L17.9257659,11.4890776 C18.1247196,10.9523339 17.9137081,10.3547199 17.413234,10.0650774" id="Fill-1"></path>
                </g>
            </g>
        </g>
    </g>
</svg>
