<svg width="41px" height="26px" viewBox="0 0 41 26" version="1.1" xmlns="http://www.w3.org/2000/svg" xmlns:xlink="http://www.w3.org/1999/xlink">
    <g id="Page-1" stroke="none" stroke-width="1" fill="none" fill-rule="evenodd">
        <g id="Home_V10_01" transform="translate(-166.000000, -31.000000)" fill="#424242">
            <g id="Top-Bar" transform="translate(-1176.000000, -2656.000000)">
                <g id="Sjef-Header">
                    <g id="Logo" transform="translate(1342.000000, 2687.000000)">
                        <path d="M6.96732026,12.3302684 C7.6452157,11.6428686 7.98449583,11.0905646 7.98449583,10.6746114 C7.98449583,10.482633 7.91203038,10.311149 7.76820752,10.1586955 C7.62394144,10.0068695 7.41607419,9.93074732 7.14549219,9.93074732 C6.87380216,9.93074732 6.61518693,9.96316198 6.36986812,10.0267365 C6.12366287,10.0909385 5.9246599,10.1388285 5.77197276,10.1708249 C5.77197276,10.7789657 6.17020032,11.4987802 6.96732026,12.3302684 M7.06903782,7.87900411 C8.20432986,7.87126642 9.05241938,8.07119166 9.61175514,8.47898895 C10.1710909,8.8872045 10.4509804,9.47108657 10.4509804,10.2306352 C10.4509804,10.990602 10.2094289,11.6384769 9.72610429,12.1744689 C9.2430013,12.7106701 8.65374861,13.0902353 7.95901104,13.314001 C8.45031349,13.7941561 8.8953001,14.2822581 9.29397088,14.7778887 C9.69197683,15.2739375 9.89142302,15.7940359 9.89142302,16.3377656 C9.89142302,17.4093314 9.44200427,18.2374736 8.54360999,18.8213557 C7.6452157,19.4052378 6.3951313,19.6969697 4.79313518,19.6969697 C3.19136066,19.6969697 1.99180262,19.3968727 1.1951259,18.797097 C0.398449168,18.1973213 0,17.5176591 0,16.7576923 C0,15.9979345 0.199446191,15.3059339 0.597673751,14.6816904 C0.995901312,14.0580742 1.4240458,13.746057 1.88188561,13.746057 C2.15268922,13.746057 2.34770327,13.8382819 2.46648456,14.0221044 C2.58504424,14.206136 2.80554308,14.7381546 3.12775948,15.6175329 C3.24609756,15.9379152 3.44133322,16.2415673 3.71235843,16.5295349 C4.3397275,17.1857749 5.33119668,17.5132675 6.68743077,17.5132675 C6.48421727,16.9055449 6.15779033,16.3818914 5.70859319,15.9418886 C5.25917444,15.5018857 4.81418783,15.0738031 4.37363335,14.658059 C3.93285727,14.2421058 3.54282917,13.7985478 3.20399225,13.3261303 C2.86471212,12.8543402 2.69562607,12.2986903 2.69562607,11.6585531 C2.69562607,10.5066826 3.15324427,9.57104919 4.06848068,8.85081643 C4.93296912,8.21151575 5.93308096,7.88736918 7.06903782,7.87900411" id="Fill-1"></path>
                        <path d="M16.7650605,0 C17.7996847,0 18.5008548,0.382196641 18.8683527,1.14637736 C18.81816,2.10590775 18.4174913,3.04864529 17.666565,3.97565283 C16.9149839,4.9024478 16.0721831,5.35798028 15.1372896,5.34161257 C14.7032319,4.67500041 14.4863122,3.93505241 14.4863122,3.1221937 C14.4863122,2.30912242 14.6866465,1.58532956 15.0873152,0.951240251 C15.4877656,0.316938372 16.0470868,0 16.7650605,0 M9.87884111,21.6098402 C9.27783815,21.8211325 8.76063517,21.9962882 8.32635925,22.1342446 C7.89251978,22.2724136 7.44995116,22.414834 6.99930805,22.5610805 C6.54866495,22.7075396 6.32323428,22.8699413 6.32323428,23.0491358 C6.32323428,23.3577841 6.52335037,23.6260444 6.92401901,23.8541295 C7.42507304,24.0326864 7.79257085,24.1219648 8.02585777,24.1219648 C8.72702788,24.1219648 9.34483448,23.2844482 9.87884111,21.6098402 M13.4346662,7.82950439 C13.6350005,7.37418448 13.9603801,7.1505633 14.4112414,7.15864088 C14.8618845,7.16693101 15.295724,7.48408195 15.7134145,8.10966856 C16.1304503,8.73589287 16.3392956,9.20332914 16.3392956,9.51240251 C16.3392956,9.96772242 16.1555466,10.9553117 15.7884853,12.4758082 C15.4212057,13.9963046 14.9784189,15.6018281 14.4612159,17.2928038 C15.6630036,16.5286231 16.990273,15.4147685 18.4425877,13.9514528 C18.6595074,13.7240054 18.8262344,13.6181467 18.9432052,13.6343019 C19.1771468,13.6343019 19.2941176,13.8866197 19.2941176,14.390405 C19.2941176,15.3337803 18.7428709,16.3702602 17.6414686,17.4998447 C16.5396299,18.6307046 15.162386,19.5526105 13.509737,20.2685384 L12.8587595,22.2443547 C12.4412873,23.4795853 11.9321588,24.37407 11.331374,24.9271711 C10.5464039,25.6424612 9.52007246,26 8.25128843,26 C6.98294087,26 5.96010105,25.6911392 5.18407835,25.0736302 C4.40761919,24.4550583 4.01960784,23.6913027 4.01960784,22.7806629 C4.01960784,21.8700231 4.67058527,21.1219975 5.97275834,20.5367987 C6.5737613,20.2766159 7.26227413,20.0283369 8.03851506,19.7928119 C8.81475599,19.5570744 9.64533596,19.301143 10.5300368,19.0243799 C10.6965456,18.1628432 10.8469054,17.3336168 10.9806799,16.5369132 C11.1310397,15.5287048 11.6318755,13.5773337 12.482969,10.6830126 C12.8838559,9.41462138 13.2007246,8.46338113 13.4346662,7.82950439" id="Fill-3"></path>
                        <path d="M23.3876448,10.0428654 C22.513014,10.0428654 21.9077202,11.0237048 21.5713238,12.9853835 C21.9244301,12.7584001 22.2564292,12.5557894 22.5677609,12.3773394 C22.8790925,12.1993132 23.1519474,12.0291287 23.3876448,11.8667858 C23.8922394,11.5100977 24.1527818,11.1048762 24.1699314,10.6509095 C24.1699314,10.2456881 23.9089493,10.0428654 23.3876448,10.0428654 M23.8166052,16.9004754 C25.1285514,16.9004754 26.3982831,16.3981874 27.6260202,15.3929754 C28.0802654,15.0199682 28.4498618,14.6753604 28.7361285,14.359152 C29.0219556,14.0433675 29.2407232,13.8850514 29.3922116,13.8850514 C29.6274692,13.8850514 29.745098,14.1120348 29.745098,14.5662134 C29.745098,15.0199682 29.6191143,15.526283 29.366707,16.0860058 C29.1145196,16.6453046 28.6941339,17.1920992 28.1053302,17.7274493 C26.6588255,19.0406042 24.6745261,19.6969697 22.1515527,19.6969697 C20.1498838,19.6969697 18.7875881,19.0003364 18.0646656,17.6060101 C17.8124781,17.1196172 17.6862745,16.42256 17.6862745,15.5144146 C17.6862745,14.6064812 17.8709628,13.6625187 18.2412187,12.6812555 C18.611035,11.7004161 19.1030972,10.8535202 19.7169658,10.139932 C20.3308344,9.42697966 21.0416643,8.87170759 21.8490157,8.47432777 C22.6561474,8.07737182 23.517806,7.87878788 24.4348711,7.87878788 C25.3512766,7.87878788 26.0577092,8.09750573 26.5539489,8.53494144 C27.0497489,8.97258908 27.2981986,9.5405773 27.2981986,10.2372106 C27.2981986,10.9346917 27.1172481,11.5062828 26.7555669,11.9517721 C26.3938858,12.3978972 25.9271082,12.7709044 25.3554541,13.0703698 C24.7835801,13.370471 24.1486043,13.6379341 23.4509664,13.8729711 C22.752669,14.1082199 22.0671238,14.3714443 21.3947706,14.6630681 L21.3947706,15.2711122 C21.4114805,15.8549956 21.663448,16.2680587 22.1515527,16.5113611 C22.6392176,16.7544516 23.1941618,16.8843683 23.8166052,16.9004754" id="Fill-5"></path>
                        <path d="M37.940938,3.94607881 C37.6066023,3.94607881 37.1514251,4.24972535 36.5747507,4.85618366 C35.9976393,5.46305935 35.4087277,6.3886074 34.806705,7.63387125 C36.0267024,7.12278508 36.8293265,6.73190537 37.2139218,6.46018868 C37.9997199,5.93365932 38.3921818,5.30320145 38.3921818,4.56881508 C38.3921818,4.15393582 38.2420586,3.94607881 37.940938,3.94607881 M32.2996246,23.7133642 C32.4663554,23.4176479 32.5502671,23.102732 32.5502671,22.767573 C32.5502671,21.6663065 32.391403,19.9738162 32.0738934,17.6911455 C31.6558646,19.3356367 31.3717885,20.9717803 31.2214467,22.5999935 C31.1877947,22.9508044 31.1714057,23.1661743 31.1714057,23.2465207 C31.1714057,23.852979 31.3632662,24.1562081 31.7478615,24.1562081 C31.9484629,24.1562081 32.1322383,24.0084543 32.2996246,23.7133642 M35.9897725,15.529516 C36.2264297,15.5516374 36.4611203,15.52889 36.6826996,15.440196 C37.0987617,15.2734512 37.456479,14.9529006 37.7420847,14.6256719 C37.9509899,14.3865112 38.1264615,14.1711412 38.268718,13.9793535 C38.410319,13.7879831 38.5484237,13.6919849 38.6823765,13.6919849 C38.966234,13.6919849 39.1087091,13.9315631 39.1087091,14.410302 C39.1087091,15.3681973 38.8578481,16.1626869 38.3563446,16.7931448 C37.7532292,17.5517394 36.6053435,17.8572641 35.6445109,17.7520835 C35.2852639,17.712432 34.9253614,17.5928517 34.6399742,17.376647 C34.3355758,17.1460426 34.1931008,16.801075 33.9544769,16.5176716 C34.3218091,20.0295369 34.5060215,22.1208372 34.5060215,22.7913639 C34.5060215,23.9886286 34.1129039,24.8423867 33.3277614,25.3536816 C32.6756976,25.7846301 31.8440103,26 30.8326996,26 C29.8213888,26 29.1190654,25.7804562 28.7266034,25.3417861 C28.3334859,24.9024899 28.1372549,24.3799257 28.1372549,23.77305 C28.1372549,19.9260258 28.7139293,16.0550019 29.8674966,12.1595612 C30.2348288,10.9142973 30.6528576,9.74937982 31.121146,8.66355649 C29.8674966,8.13660974 29.2405626,7.66580109 29.2405626,7.25071314 C29.2405626,6.96334456 29.349167,6.81976461 29.5665945,6.81976461 C29.9007116,6.81976461 30.243351,6.88779813 30.5947313,7.02303041 C30.9454559,7.15909745 31.3217474,7.26678241 31.7227317,7.34650266 C33.0598558,4.6163968 34.5975814,2.836882 36.3363453,2.00649741 C36.9381495,1.71933752 37.5397352,1.57575758 38.1417579,1.57575758 C39.2614546,1.59161815 40.0177524,1.84705689 40.41087,2.3418651 C40.8035505,2.836882 41,3.47527015 41,4.25744694 C40.983174,5.74187157 40.3145026,6.911589 38.993986,7.76555576 C37.6734694,8.61952252 36.060573,9.09450501 34.1550783,9.19008585 C33.6699638,10.4196978 33.2936723,11.7286127 33.0266408,13.1174564 C33.094819,13.925511 33.7370494,14.526126 34.4253876,14.9257707 C34.8705129,15.1839224 35.4364798,15.4781779 35.9897725,15.529516" id="Fill-7"></path>
                    </g>
                </g>
            </g>
        </g>
    </g>
</svg>