<svg width="176px" height="124px" viewBox="0 0 176 124" version="1.1" xmlns="http://www.w3.org/2000/svg" xmlns:xlink="http://www.w3.org/1999/xlink">
    <g id="Page-1" stroke="none" stroke-width="1" fill="none" fill-rule="evenodd">
        <g id="Pre-loader_01" transform="translate(-99.000000, -272.000000)" fill="#FFC546">
            <g id="Group-14" transform="translate(99.000000, 272.000000)">
                <path d="M162.492825,70.2989154 C159.773892,72.733345 157.464405,67.9893808 156.956483,66.0627212 C155.336318,59.9264843 153.821883,53.9786138 151.831661,47.9498686 C151.517579,46.9977999 151.216973,45.9187886 151.693797,45.034286 C152.587324,43.3778911 154.492547,43.4536471 155.915763,44.38217 C158.442931,46.0313989 158.826463,50.7876478 159.609076,53.4165861 C160.782478,57.3579461 161.95588,61.2982824 163.129282,65.2396424 C163.866286,67.7139974 163.426779,69.4625281 162.492825,70.2989154 M148.851511,75.0121677 C147.985971,75.6898768 146.726534,75.9632127 145.786361,75.4339444 C145.09704,75.0439033 144.79436,74.234133 144.544546,73.4888576 C142.082682,66.1671416 139.251798,58.8802324 137.457489,51.3619603 C137.332063,50.8357631 137.210784,50.2788541 137.37249,49.7618705 C137.523829,49.2817412 137.903216,48.9009137 138.331321,48.6286015 C143.150354,45.5707204 144.130953,54.8590215 145.016187,57.66916 C146.584523,62.6547244 148.15597,67.6382414 149.751257,72.615616 C150.04979,73.544139 149.596808,74.4276179 148.851511,75.0121677 M134.848432,79.3742806 C134.263804,80.1830272 133.300827,80.4727428 132.034133,79.649664 C131.401823,79.2391483 131.040059,78.5378933 130.717684,77.8622316 C127.395464,70.8967736 125.921456,63.3805489 123.606786,56.0782838 C123.429532,55.5213747 123.251241,54.9460385 123.30618,54.36456 C123.421239,53.1616774 124.61019,52.7296634 125.630179,52.4655411 C127.214064,52.0550254 128.050579,52.9559077 128.517037,54.3881058 C130.593295,60.7628717 132.669553,67.1376375 134.744774,73.5134271 C135.112758,74.6436249 135.483852,75.795321 135.495254,76.9818239 C135.503547,77.9042045 135.277574,78.7794936 134.848432,79.3742806 M60.8308244,21.7976655 C60.4089388,22.7036664 59.3982791,23.2564805 58.395912,23.129538 C56.787149,22.924792 55.8542324,21.2622547 56.5321518,19.8075346 C56.9561106,18.9005099 57.9657337,18.3476958 58.9681008,18.4746383 C60.5768638,18.6793843 61.5097804,20.3419216 60.8308244,21.7976655 M161.865698,36.0531039 C161.565092,35.3723235 161.206437,34.7243025 160.690223,34.1909392 C158.456406,31.8844758 154.607607,32.751575 151.549713,33.7865659 C149.950279,34.328119 148.349809,34.8706959 146.750375,35.4112252 C146.382391,35.5361203 145.98331,35.662039 145.61118,35.5504525 C145.078381,35.3897269 144.808872,34.8195094 144.594301,34.3117393 C133.763139,8.69494689 102.448236,-5.20218605 75.6165168,1.8093398 C64.0690818,4.82627172 53.4089542,11.3238852 45.5258084,20.1852909 L45.2759941,20.6551829 C44.9691681,21.2325666 44.918376,21.8457808 45.1225811,22.4958492 C45.3236765,23.1428465 45.7248306,23.6158097 46.310495,23.9198575 C48.7993093,25.2087334 51.287087,26.4965855 53.7759014,27.7854614 C55.2944824,28.571686 56.7975148,29.4060258 58.3389004,30.14823 C62.4727577,32.141432 66.0707063,27.5581934 69.5142053,25.6960288 C77.8441145,21.1905936 87.6221176,19.1922729 97.0507953,20.5835218 C108.813838,22.3177202 120.321883,29.0692187 125.491278,39.9197316 C125.751458,40.4643558 125.99298,41.1185192 125.696519,41.6457401 C125.514082,41.9712862 125.164757,42.1657949 124.824761,42.3254967 C122.373263,43.4700267 119.549635,43.5867319 117.034907,44.5858923 C111.348261,46.8452641 112.813977,52.3539545 113.985306,57.0324 C115.414741,62.739694 117.616425,68.2217675 119.185798,73.8901597 C120.513649,78.6873579 121.679795,83.5674782 123.180754,88.3175847 C124.05355,91.0816554 127.031627,92.6233926 129.830377,91.7603883 L172.270829,78.6812155 C175.069579,77.819235 176.630659,74.8790828 175.757864,72.1139884 C171.269498,60.4557527 166.781132,48.797517 162.302096,37.1351863 C162.164232,36.7738097 162.022221,36.4093618 161.865698,36.0531039" id="Fill-10"></path>
                <path d="M13.5071745,53.7006181 C16.2261083,51.2661874 18.5355953,56.0101537 19.0435166,57.9368141 C20.6636818,64.0740772 22.1781165,70.0209266 24.1683387,76.0496743 C24.4824207,77.0017435 24.7830272,78.0807552 24.3062031,78.9652582 C23.4126762,80.6226776 21.5074531,80.5469215 20.0842369,79.6173744 C17.5570694,77.9681449 17.173537,73.2129176 16.3909236,70.5829545 C15.2175217,66.6426166 14.0441199,62.7012549 12.870718,58.7598932 C12.1337139,56.2855371 12.5732213,54.5370057 13.5071745,53.7006181 M27.1484892,48.9883875 C28.0140285,48.3096543 29.273466,48.0363183 30.2136387,48.5666106 C30.9029604,48.9556281 31.20564,49.7653988 31.4554544,50.5106745 C33.9173178,57.8334173 36.7482015,65.1193059 38.5425112,72.6375812 C38.6679367,73.1648023 38.7892159,73.7217116 38.6275103,74.2376717 C38.4761705,74.7178012 38.0967844,75.0986289 37.6686793,75.3709411 C32.8496465,78.4288235 31.8690474,69.1405185 30.9838132,66.3303788 C29.4154766,61.3448123 27.8440304,56.3612931 26.2487429,51.3839164 C25.9502095,50.455393 26.4031924,49.5719138 27.1484892,48.9883875 M41.1515682,44.625249 C41.7361959,43.816502 42.6991732,43.5278101 43.9658667,44.3508892 C44.5981769,44.7603814 44.9599413,45.4626604 45.2823158,46.1372986 C48.6055722,53.1037833 50.078544,60.6189875 52.3932138,67.9212557 C52.570468,68.4791887 52.7487588,69.0535014 52.6938203,69.6349802 C52.5787606,70.8378633 51.3898102,71.2698775 50.3708579,71.5350237 C48.7859361,71.9445158 47.9494208,71.0436331 47.4829625,69.6114344 C45.4067047,63.2366658 43.3304468,56.8618973 41.2552256,50.4861049 C40.8872418,49.3559067 40.5161483,48.2042101 40.5047459,47.0177067 C40.4964533,46.0963494 40.7224265,45.2200363 41.1515682,44.625249 M115.169176,102.202912 C115.591061,101.295887 116.601721,100.743073 117.604088,100.870015 C119.212851,101.073738 120.145768,102.7373 119.467848,104.19202 C119.043889,105.099045 118.034266,105.65186 117.031899,105.524917 C115.423136,105.321195 114.49022,103.657633 115.169176,102.202912 M14.1343018,87.9464441 C14.4349083,88.6272248 14.7935629,89.2762698 15.3097768,89.8086096 C17.5435939,92.1150739 21.3923934,91.2479744 24.4502869,90.212983 C26.0497207,89.6714297 27.650191,89.1288526 29.2496248,88.588323 C29.6176086,88.4634279 30.0166896,88.3375091 30.3888197,88.4490957 C30.9216187,88.6108451 31.191128,89.1800392 31.4056988,89.6867857 C42.2368612,115.305636 73.5517636,129.202775 100.383483,122.190223 C111.930918,119.17329 122.591046,112.675673 130.474192,103.814264 L130.724006,103.344372 C131.030832,102.766988 131.081624,102.153773 130.877419,101.503705 C130.676324,100.856707 130.275169,100.383744 129.689505,100.080719 L122.224099,96.2140901 C120.705518,95.4278652 119.202485,94.593525 117.6611,93.8513205 C113.527242,91.8581176 109.929294,96.4413582 106.485795,98.3024999 C98.1558855,102.808961 88.3778824,104.808306 78.9492047,103.416033 C67.1861623,101.681834 55.678117,94.9303323 50.5087222,84.0808385 C50.2485421,83.5351903 50.0070204,82.8820503 50.3034805,82.3538055 C50.4859176,82.029283 50.835243,81.8327268 51.1752393,81.6740486 C53.626737,80.5295181 56.4503647,80.4128129 58.9650934,79.4136521 C64.6517387,77.1542793 63.186023,71.6455865 62.0146943,66.9681628 C60.5852587,61.2598426 58.3835753,55.7777669 56.8142022,50.1103959 C55.4863508,45.312172 54.320205,40.4320496 52.8192458,35.6829648 C51.9464504,32.918893 48.9683732,31.3771551 46.1696232,32.239136 L3.7291714,45.3183144 C0.930421431,46.181319 -0.630659105,49.1204487 0.242136255,51.8855443 C4.73050194,63.5437849 9.21886762,75.2020256 13.6979041,86.8653849 C13.8357685,87.225738 13.9777791,87.590186 14.1343018,87.9464441" id="Fill-12"></path>
            </g>
        </g>
    </g>
</svg>